<svg id="Ebene_1" data-name="Ebene 1" xmlns="http://www.w3.org/2000/svg" viewBox="0 0 429.73 585.88">
  <defs>
    <style>
      .cls-1 {
        fill: #e15b29;
      }

      .cls-2 {
        fill: #fff;
      }
    </style>
  </defs>
  <path class="cls-1" d="M4.53,467.51A10.09,10.09,0,0,1,0,459.67V225a10.06,10.06,0,0,1,4.53-7.84L210.34,99.93a10,10,0,0,1,9.06,0L425.19,217.22a10,10,0,0,1,4.54,7.83V459.68a10,10,0,0,1-4.54,7.83L219.4,584.8a10.06,10.06,0,0,1-9.07,0L4.53,467.51Z"/>
  <g>
    <path class="cls-2" d="M214.87,25.24c-104.28,0-189.12,84.84-189.12,189.11s84.84,189.12,189.12,189.12S404,318.64,404,214.35,319.15,25.24,214.87,25.24Z"/>
    <path d="M214.86,428.71C96.67,428.71.51,332.55.51,214.35S96.67,0,214.86,0,429.22,96.16,429.22,214.35,333.06,428.71,214.86,428.71Zm0-403.47c-104.28,0-189.12,84.84-189.12,189.11s84.84,189.12,189.12,189.12S404,318.64,404,214.35,319.14,25.24,214.86,25.24Z"/>
    <g id="Ebene_1-2" data-name="Ebene 1">
      <path d="M320.16,264V184.41H267l-33,27.52-16.9,14.3-27.61-33.85,56.7-45.5H190.08L136.7,192.69V97.2H96.36V269.68h40.33V234.4l21.43-17,24.6,31.17-21.05,16.73.16,28.56H279.27v32.23h40.89V293.82h30.57V264Zm-40.89-36.15V264h-54L270,226.38l9.26-7.79v9.24Z"/>
    </g>
  </g>
</svg>
