<svg id="Ebene_1" data-name="Ebene 1" xmlns="http://www.w3.org/2000/svg" viewBox="0 0 516.92 585.84">
  <defs>
    <style>
      .cls-1 {
        fill: #e15b29;
      }

      .cls-2 {
        fill: #fff;
      }
    </style>
  </defs>
  <path class="cls-1" d="M5.45,443.49A12.14,12.14,0,0,1,0,434.06V151.82a12.09,12.09,0,0,1,5.45-9.42L253,1.33a12.12,12.12,0,0,1,10.91,0L511.46,142.42a12.08,12.08,0,0,1,5.46,9.42V434.07a12.08,12.08,0,0,1-5.46,9.42L263.92,584.58a12.12,12.12,0,0,1-10.91,0L5.45,443.49Z" transform="translate(0 -0.03)"/>
  <g>
    <path class="cls-2" d="M258.33,111C158.23,111,76.8,192.42,76.8,292.5S158.23,474,258.33,474,439.84,392.6,439.84,292.5,358.41,111,258.33,111Z" transform="translate(0 -0.03)"/>
    <path d="M258.32,498.25C144.87,498.25,52.57,406,52.57,292.5S144.87,86.75,258.32,86.75s205.74,92.3,205.74,205.75S371.76,498.25,258.32,498.25Zm0-387.27C158.22,111,76.79,192.42,76.79,292.5S158.22,474,258.32,474,439.83,392.6,439.83,292.5,358.4,111,258.32,111Z" transform="translate(0 -0.03)"/>
    <g id="Ebene_1-2" data-name="Ebene 1">
      <path d="M359.38,340.13V263.76h-51l-31.65,26.42L260.49,303.9,234,271.41l54.43-43.68H234.53l-51.24,44V180.05H144.57V345.6h38.71V311.74l20.57-16.36,23.61,29.93-20.2,16.05.15,27.41H320.13v30.94h39.25V368.77h29.35V340.13Zm-39.25-34.7v34.7H268.27l43-36.09,8.89-7.48v8.87Z" transform="translate(0 -0.03)"/>
    </g>
  </g>
</svg>
